<?xml version="1.0" encoding="UTF-8" standalone="no"?>
<svg
   xmlns:dc="http://purl.org/dc/elements/1.1/"
   xmlns:cc="http://creativecommons.org/ns#"
   xmlns:rdf="http://www.w3.org/1999/02/22-rdf-syntax-ns#"
   xmlns:svg="http://www.w3.org/2000/svg"
   xmlns="http://www.w3.org/2000/svg"
   xmlns:sodipodi="http://sodipodi.sourceforge.net/DTD/sodipodi-0.dtd"
   xmlns:inkscape="http://www.inkscape.org/namespaces/inkscape"
   width="409px"
   height="409px"
   viewBox="0 0 409 409"
   id="svg2"
   version="1.1"
   inkscape:version="0.48.4 r9939"
   sodipodi:docname="logo.svg">
  <metadata
     id="metadata30">
    <rdf:RDF>
      <cc:Work
         rdf:about="">
        <dc:format>image/svg+xml</dc:format>
        <dc:type
           rdf:resource="http://purl.org/dc/dcmitype/StillImage" />
        <dc:title></dc:title>
      </cc:Work>
    </rdf:RDF>
  </metadata>
  <sodipodi:namedview
     pagecolor="#ffffff"
     bordercolor="#666666"
     borderopacity="1"
     objecttolerance="10"
     gridtolerance="10"
     guidetolerance="10"
     inkscape:pageopacity="0"
     inkscape:pageshadow="2"
     inkscape:window-width="1228"
     inkscape:window-height="789"
     id="namedview28"
     showgrid="false"
     inkscape:zoom="0.57701711"
     inkscape:cx="204.5"
     inkscape:cy="204.5"
     inkscape:window-x="49"
     inkscape:window-y="24"
     inkscape:window-maximized="0"
     inkscape:current-layer="svg2" />
  <defs
     id="defs4" />
  <g
     id="g6">
    <path
       d="M183.9 183.9 L165.5 165.5 M158 158 L151 165 167.6 181.6 189.5 203.5 189.5 196.5 193 193 196.5 196.5 203.5 203.5 189.5 203.5 196.5 196.5 189.5 196.5 M96.3 203.5 L96.3 171.3 80.3 155.3 80.3 203.5 64.3 203.5 64.3 201.2 Q63.95 184.9 61.4 170.7 58.05 152.3 51 137.5 41.6 117.8 20.6 95.6 L0 95.6 0 0 10.3 10.3 64.3 64.3 64.3 139.3 64.3 155.3 80.3 155.3 80.3 80.3 101.2 101.3 96.3 106.2 96.3 171.3 M20.6 95.6 L10.3 85.3 0 95.6 M10.3 10.3 L10.3 85.3 M64.3 155.3 L64.3 190.1 64.3 194.2 64.3 201.2 M106.2 106.2 L106.2 181.2 119.85 203.5 147.5 203.5 147.5 147.5 106.2 106.2 M20.6 95.6 L64.3 139.3 M161.5 203.5 L161.5 202.4 Q161.8 190.8 167.6 181.6 M106.2 181.2 L106.2 203.5 M151 165 L151 203.5"
       id="path8"
       stroke-linejoin="round"
       stroke-linecap="round"
       stroke-width="2"
       stroke="#ffffff"
       fill="none" />
    <path
       d="M203.5 310.7 L171.3 310.7 155.3 326.7 203.5 326.7 203.5 342.7 201.2 342.7 Q184.9 343.05 170.7 345.6 152.3 348.95 137.5 356 117.8 365.4 95.6 386.4 L95.6 407 0 407 10.3 396.7 64.3 342.7 139.3 342.7 155.3 342.7 155.3 326.7 80.3 326.7 101.3 305.8 106.2 310.7 171.3 310.7 M10.3 396.7 L85.3 396.7 95.6 386.4 139.3 342.7 M106.2 300.8 L181.2 300.8 203.5 287.15 203.5 259.5 147.5 259.5 106.2 300.8 M158 249 L165 256 181.6 239.4 203.5 217.5 196.5 217.5 193 214 196.5 210.5 203.5 203.5 203.5 217.5 196.5 210.5 196.5 217.5 M203.5 245.5 L202.4 245.5 Q190.8 245.2 181.6 239.4 M183.9 223.1 L165.5 241.5 M165 256 L203.5 256 M155.3 342.7 L190.1 342.7 194.2 342.7 201.2 342.7 M181.2 300.8 L203.5 300.8 M85.3 396.7 L95.6 407"
       id="path10"
       stroke-linejoin="round"
       stroke-linecap="round"
       stroke-width="2"
       stroke="#ffffff"
       fill="none" />
    <path
       d="M310.7 203.5 L310.7 235.7 326.7 251.7 326.7 203.5 342.7 203.5 342.7 205.8 Q343.05 222.1 345.6 236.3 348.95 254.7 356 269.5 365.4 289.2 386.4 311.4 L407 311.4 407 407 396.7 396.7 342.7 342.7 342.7 267.7 342.7 251.7 326.7 251.7 326.7 326.7 305.8 305.7 310.7 300.8 310.7 235.7 M342.7 251.7 L342.7 216.9 342.7 212.8 342.7 205.8 M386.4 311.4 L396.7 321.7 407 311.4 M386.4 311.4 L342.7 267.7 M287.15 203.5 L259.5 203.5 259.5 259.5 300.8 300.8 300.8 225.8 287.15 203.5 M300.8 225.8 L300.8 203.5 M245.5 203.5 L245.5 204.6 Q245.2 216.2 239.4 225.4 L256 242 256 203.5 M249 249 L256 242 M239.4 225.4 L217.5 203.5 217.5 210.5 214 214 210.5 210.5 203.5 203.5 217.5 203.5 210.5 210.5 217.5 210.5 M223.1 223.1 L241.5 241.5 M396.7 396.7 L396.7 321.7"
       id="path12"
       stroke-linejoin="round"
       stroke-linecap="round"
       stroke-width="2"
       stroke="#ffffff"
       fill="none" />
    <path
       d="M203.5 96.3 L235.7 96.3 251.7 80.3 203.5 80.3 203.5 64.3 205.8 64.3 Q222.1 63.95 236.3 61.4 254.7 58.05 269.5 51 289.2 41.6 311.4 20.6 L311.4 0 407 0 396.7 10.3 342.7 64.3 267.7 64.3 251.7 64.3 251.7 80.3 326.7 80.3 305.7 101.2 300.8 96.3 235.7 96.3 M311.4 20.6 L321.7 10.3 311.4 0 M311.4 20.6 L267.7 64.3 M251.7 64.3 L216.9 64.3 212.8 64.3 205.8 64.3 M203.5 119.85 L203.5 147.5 259.5 147.5 300.8 106.2 225.8 106.2 203.5 119.85 M225.8 106.2 L203.5 106.2 M249 158 L242 151 225.4 167.6 203.5 189.5 210.5 189.5 214 193 210.5 196.5 203.5 203.5 203.5 189.5 210.5 196.5 210.5 189.5 M203.5 161.5 L204.6 161.5 Q216.2 161.8 225.4 167.6 M223.1 183.9 L241.5 165.5 M242 151 L203.5 151 M396.7 10.3 L321.7 10.3"
       id="path14"
       stroke-linejoin="round"
       stroke-linecap="round"
       stroke-width="2"
       stroke="#ffffff"
       fill="none" />
    <path
       d="M407 0 L396.7 10.3 396.7 85.3 407 95.6 407 0 M396.7 10.3 L342.7 64.3 342.7 139.3 386.4 95.6 396.7 85.3 M326.7 155.3 L326.7 203.5 342.7 203.5 342.7 201.2 342.7 194.2 342.7 190.1 342.7 155.3 326.7 155.3 326.7 80.3 305.8 101.3 310.7 106.2 310.7 171.3 326.7 155.3 M342.7 201.2 Q343.05 184.9 345.6 170.7 348.95 152.3 356 137.5 365.4 117.8 386.4 95.6 L407 95.6 M342.7 139.3 L342.7 155.3 M223.1 183.9 L241.5 165.5 M214 193 L210.5 196.5 217.5 196.5 214 193 M249 158 L256 165 256 203.5 M300.8 203.5 L300.8 181.2 287.15 203.5 259.5 203.5 259.5 147.5 300.8 106.2 300.8 181.2 M256 165 L239.4 181.6 Q245.2 190.8 245.5 202.4 L245.5 203.5 M217.5 203.5 L210.5 196.5 203.5 203.5 217.5 203.5 217.5 196.5 M239.4 181.6 L217.5 203.5 M310.7 203.5 L310.7 171.3"
       id="path16"
       stroke-linejoin="round"
       stroke-linecap="round"
       stroke-width="2"
       stroke="#ffffff"
       fill="none" />
    <path
       d="M203.5 217.5 L210.5 210.5 203.5 203.5 203.5 217.5 210.5 217.5 210.5 210.5 214 214 210.5 217.5 M203.5 245.5 L204.6 245.5 Q216.2 245.2 225.4 239.4 L203.5 217.5 M223.1 223.1 L241.5 241.5 M249 249 L242 256 203.5 256 M203.5 300.8 L225.8 300.8 203.5 287.15 203.5 259.5 259.5 259.5 300.8 300.8 225.8 300.8 M242 256 L225.4 239.4 M203.5 310.7 L235.7 310.7 300.8 310.7 305.7 305.8 326.7 326.7 251.7 326.7 251.7 342.7 267.7 342.7 342.7 342.7 396.7 396.7 407 407 311.4 407 311.4 386.4 Q289.2 365.4 269.5 356 254.7 348.95 236.3 345.6 222.1 343.05 205.8 342.7 L203.5 342.7 203.5 326.7 251.7 326.7 235.7 310.7 M251.7 342.7 L216.9 342.7 212.8 342.7 205.8 342.7 M311.4 386.4 L267.7 342.7 M396.7 396.7 L321.7 396.7 311.4 407 M321.7 396.7 L311.4 386.4"
       id="path18"
       stroke-linejoin="round"
       stroke-linecap="round"
       stroke-width="2"
       stroke="#ffffff"
       fill="none" />
    <path
       d="M161.5 203.5 L161.5 204.6 Q161.8 216.2 167.6 225.4 L189.5 203.5 203.5 203.5 196.5 210.5 193 214 189.5 210.5 189.5 203.5 196.5 210.5 189.5 210.5 M158 249 L151 242 151 203.5 M96.3 203.5 L96.3 235.7 96.3 300.8 101.2 305.7 80.3 326.7 80.3 251.7 64.3 251.7 64.3 267.7 64.3 342.7 10.3 396.7 0 407 0 311.4 20.6 311.4 Q41.6 289.2 51 269.5 58.05 254.7 61.4 236.3 63.95 222.1 64.3 205.8 L64.3 203.5 80.3 203.5 80.3 251.7 96.3 235.7 M106.2 203.5 L106.2 225.8 119.85 203.5 147.5 203.5 147.5 259.5 106.2 300.8 106.2 225.8 M64.3 251.7 L64.3 216.9 64.3 212.8 64.3 205.8 M10.3 396.7 L10.3 321.7 0 311.4 M64.3 267.7 L20.6 311.4 10.3 321.7 M183.9 223.1 L165.5 241.5 M167.6 225.4 L151 242"
       id="path20"
       stroke-linejoin="round"
       stroke-linecap="round"
       stroke-width="2"
       stroke="#ffffff"
       fill="none" />
    <path
       d="M170.7 61.4 Q152.3 58.05 137.5 51 117.8 41.6 95.6 20.6 L139.3 64.3 155.3 64.3 190.1 64.3 194.2 64.3 201.2 64.3 Q184.9 63.95 170.7 61.4 M155.3 64.3 L155.3 80.3 203.5 80.3 203.5 64.3 201.2 64.3 M203.5 96.3 L171.3 96.3 106.2 96.3 101.3 101.2 80.3 80.3 155.3 80.3 171.3 96.3 M203.5 106.2 L181.2 106.2 203.5 119.85 203.5 147.5 147.5 147.5 106.2 106.2 181.2 106.2 M203.5 161.5 L202.4 161.5 Q190.8 161.8 181.6 167.6 L203.5 189.5 203.5 203.5 196.5 196.5 193 193 196.5 189.5 203.5 189.5 196.5 196.5 196.5 189.5 M183.9 183.9 L165.5 165.5 M203.5 151 L165 151 181.6 167.6 M95.6 0 L85.3 10.3 95.6 20.6 95.6 0 0 0 10.3 10.3 85.3 10.3 M10.3 10.3 L64.3 64.3 139.3 64.3 M158 158 L165 151"
       id="path22"
       stroke-linejoin="round"
       stroke-linecap="round"
       stroke-width="2"
       stroke="#ffffff"
       fill="none" />
    <path
       d="M350.3 19.15 L350.15 19.15 350.25 19.2 350.3 19.15 359.2 10.3 M321.7 10.3 L350.1 19.15 350.15 19.15 304.4 27.9 341.5 27.9 350.25 19.2 378.2 27.9 332.4 36.9 332.4 36.95 369.7 36.95 M332.3 37 L332.4 36.95 332.25 36.95 332.15 36.95 332.3 37 360 46.1 314.05 55.15 351.25 55.15 M285.75 46.1 L286.1 46.05 332.15 36.95 332.05 36.95 295.3 36.9 M293.3 36.1 L290.15 38.45 M378.2 27.9 L341.5 27.9 332.4 36.9 332.25 36.95 M342.7 101.8 L351.85 92.95 342.7 64.3 314.05 55.15 305.2 64.3 M351.85 55.75 L351.85 92.95 360.9 47 370 74.7 370.05 74.6 370.05 37.3 M360.9 120.95 L360.9 83.85 351.85 92.95 360.8 121.05 360.9 121.25 360.95 120.9 370.05 74.85 370 74.7 360.9 83.85 360.9 47 M387.8 56.75 L379.1 65.5 379.1 102.6 387.85 56.85 387.8 56.75 379.1 28.8 379.1 65.5 370.1 74.6 370.05 74.75 370.05 74.85 370.05 74.95 379.1 102.6 M387.8 56.75 L387.85 56.7 387.85 20.25 M396.7 47.8 L387.85 56.7 387.85 56.85 387.85 56.9 396.7 85.3 M370.05 74.6 L370.1 74.6 379.1 28.8 M370.05 74.6 L370.05 74.75 M387.85 94.55 L387.85 56.9 M350.3 19.15 L396.7 10.3 387.85 56.7 M350.3 19.15 L386.75 19.15 M386.2 95.85 L381.8 100.6 381.15 101.35 374.25 109.45 370.9 113.7 368.55 116.85 365.9 120.6 363 124.95 360.25 129.5 356.95 135.5 355.95 137.6 354.15 141.55 Q352.8 144.7 351.6 148.05 M342.7 139.3 L351.85 92.95 352.45 129.45 M360.9 120.95 L360.9 121.25 M345.2 172.9 L345.55 170.8 346 168.5 346.85 164.3 348.1 159.2 349.7 153.75 M343.15 190.5 Q343.8 181.3 345.2 172.9 M370.05 74.95 L370.1 111.7 M343.15 216.5 Q343.8 225.7 345.2 234.1 L345.55 236.2 346 238.5 346.85 242.7 348.1 247.8 349.7 253.25 M351.6 258.95 Q352.8 262.3 354.15 265.45 L355.95 269.4 356.95 271.5 360.25 277.5 363 282.05 365.9 286.4 368.55 290.15 370.9 293.3 374.25 297.55 381.15 305.65 381.8 306.4 386.2 311.15 M360.9 285.75 L360.95 286.1 370.05 332.15 370.05 332.05 370.1 295.3 M360.8 285.95 L351.85 314.05 360.9 323.15 360.9 286.05 360.9 285.75 360.8 285.95 M370.05 332.4 L370.05 332.25 370.05 332.15 370 332.3 370.05 332.4 370.1 332.4 370.05 332.25 M370.1 332.4 L379.1 378.2 379.1 341.5 370.1 332.4 M379.1 341.5 L379.1 304.4 370.05 332.05 M305.2 342.7 L314.05 351.85 342.7 342.7 351.85 314.05 342.7 305.2 M332.25 370.05 L332.15 370.05 332.05 370.05 304.4 379.1 341.5 379.1 332.4 370.1 332.25 370.05 332.4 370.05 332.3 370 332.15 370.05 286.1 360.95 285.75 360.9 286.05 360.9 M282.05 363 L286.4 365.9 M332.4 370.1 L332.4 370.05 369.7 370.05 M350.3 387.85 L350.25 387.8 350.15 387.85 350.3 387.85 386.75 387.85 M312.45 387.85 L350.1 387.85 350.15 387.85 304.4 379.1 M350.25 387.8 L341.5 379.1 378.2 379.1 332.4 370.1 M351.25 351.85 L314.05 351.85 360 360.9 332.3 370 323.15 360.9 286.05 360.9 M387.85 350.3 L387.85 350.15 387.8 350.25 387.85 350.3 396.7 359.2 M379.1 378.2 L387.8 350.25 379.1 341.5 M350.3 387.85 L396.7 396.7 387.85 350.3 387.85 386.75 M396.7 321.7 L387.85 350.1 387.85 350.15 379.1 304.4 M378.2 379.1 L350.25 387.8 M387.85 312.45 L387.85 350.1 M351.85 351.25 L351.85 314.05 342.7 267.7 M370.05 369.7 L370.05 332.4 M360.9 323.15 L360.9 360 370 332.3 360.9 323.15 M351.85 314.05 L360.9 360 M352.45 277.55 L351.85 314.05 M285.75 46.1 L286.05 46.1 M277.55 54.55 L314.05 55.15 285.95 46.2 285.75 46.1 M282.05 44 L277.5 46.75 M282.05 44 L286.4 41.1 290.15 38.45 M293.3 36.1 L297.55 32.75 305.65 25.85 306.4 25.2 311.15 20.8 M314.05 55.15 L323.15 46.1 286.05 46.1 M271.5 50.05 L269.4 51.05 265.45 52.85 258.95 55.4 M267.7 64.3 L314.05 55.15 M247.8 58.9 L242.7 60.15 M247.8 58.9 L253.25 57.3 M321.5 160.4 L321.5 123.35 321.5 123.2 316.25 165.75 311.05 133.95 311 133.55 311.05 133.45 311.05 95.95 273.55 95.95 273.45 96 273.05 95.95 241.25 90.75 283.8 85.5 283.65 85.5 246.6 85.5 M273.05 95.95 L273.6 95.85 278.75 90.75 241.25 90.75 M273.05 95.95 L273.55 95.95 273.6 95.85 315.65 90.75 278.75 90.75 283.9 85.55 283.8 85.5 283.9 85.5 289.05 80.25 M283.9 85.55 L283.9 85.5 284.15 85.5 326.7 80.3 321.5 122.85 321.5 123.1 326.75 117.95 M311.05 95.6 L311.05 95.95 311.4 95.95 M311.05 133.45 L311.15 133.4 316.25 91.35 316.25 90.75 315.65 90.75 283.9 85.55 M321.5 122.85 L321.5 85.5 284.15 85.5 M271.5 50.05 L277.5 46.75 M251.7 80.3 L283.65 85.5 M168.5 61 L164.3 60.15 M172.9 61.8 L170.8 61.45 168.5 61 M190.5 63.85 L172.9 61.8 M216.5 63.85 L234.1 61.8 236.2 61.45 238.5 61 242.7 60.15 M207.3 119.85 L242.5 119.85 243.75 119.85 244.7 119.85 247.6 119.85 251.2 116.25 249.6 116.25 203.5 119.85 207.3 119.85 M239.35 127.05 L238 127.05 203.5 127.05 239.45 130.8 239.55 130.8 239.6 130.8 241.35 127.1 239.35 127.05 241.35 127.05 244.25 123.7 243.15 123.6 203.5 127.05 163.85 123.6 162.75 123.7 165.65 127.05 167.65 127.05 169 127.05 203.5 127.05 167.55 130.8 203.5 134.25 239.45 130.8 M241.35 127.1 L243.35 127.1 243.4 127.05 241.35 127.05 241.35 127.1 M203.5 134.25 L237.1 134.25 237.6 134.25 238 134.25 239.55 130.8 M241.1 131 L272.7 134.3 276 165.9 276.35 165.7 279.95 127.8 283.3 162.75 283.5 162.6 287.15 119.85 244.4 123.5 244.25 123.7 279.2 127.05 241.3 130.65 241.1 131 239.6 130.8 241.3 130.65 M240.35 134.25 L239.2 134.2 239.2 134.25 240.35 134.25 240.75 134.25 241.3 134.25 272.7 134.3 272.75 165.7 272.75 166.25 272.75 166.65 272.8 167.8 272.75 169 276.2 167.45 276 165.9 M238 134.25 L239.2 134.2 M238 134.25 L239.2 134.25 M236.95 138.05 L265.65 141.35 268.95 170.05 269.1 169.95 272.7 134.3 237.05 137.9 236.95 138.05 236.3 138 236.2 138 234.6 141.35 265.65 141.35 265.65 172.4 269 170.8 269 170.7 268.95 170.05 M237.05 137.9 L236.3 138 M234 144.7 L259.5 147.5 262.3 173 262.55 172.95 265.65 141.35 234.05 144.45 234 144.7 233.15 144.6 233 144.55 203.5 147.5 174 144.55 173.85 144.6 173 144.7 173.5 147.5 M234 144.7 L233.5 147.5 M233.15 144.6 L233.2 144.55 233 144.55 203.5 141.35 174 144.55 173.8 144.55 173.85 144.6 M234.05 144.45 L233.2 144.55 M234.05 144.45 L234.6 141.35 203.5 141.35 170.8 138 172.4 141.35 203.5 141.35 236.2 138 203.5 134.25 170.8 138 169 134.25 167.8 134.25 166.65 134.25 166.25 134.25 165.7 134.25 134.3 134.3 169.95 137.9 170.7 138 170.8 138 M236.2 138 L238 134.25 M162.3 119.85 L159.5 119.9 162.6 123.5 163.85 123.6 203.5 119.85 199.7 119.85 164.5 119.85 163.25 119.85 162.3 119.85 159.4 119.85 159.45 119.9 159.5 119.9 M162.6 123.5 L162.75 123.7 127.8 127.05 159.15 127.05 160.25 127.05 161.05 127.05 163.6 127.05 165.65 127.05 165.65 127.1 167.65 127.05 M161.05 127.05 L163.65 127.1 163.6 127.05 M127.8 127.05 L165.7 130.65 167.4 130.8 165.65 127.1 163.65 127.1 M165.7 130.65 L165.9 131 167.4 130.8 167.45 130.8 167.55 130.8 M167.8 134.25 L167.8 134.2 166.65 134.25 M203.5 134.25 L169.9 134.25 169.4 134.25 169 134.25 167.8 134.2 M169 134.25 L167.45 130.8 M169.95 137.9 L170.05 138.05 170.7 138 M172.4 141.35 L141.35 141.35 172.95 144.45 172.4 141.35 M173.8 144.55 L172.95 144.45 173 144.7 147.5 147.5 144.7 173 147.5 173.5 M321.5 123.1 L321.5 123.2 321.45 123.1 316.25 128.25 316.25 165.75 M321.5 123.1 L321.45 123.1 316.25 91.35 316.25 128.25 311.15 133.4 311.05 133.95 311.05 133.45 M294 112.8 L258.65 109.35 258 109.4 254.8 112.65 293.7 112.8 294 112.8 M287.15 119.85 L285.75 119.85 271.45 119.85 262.1 119.85 252.35 119.85 251.15 119.85 250.3 119.85 247.55 119.9 247.5 119.9 244.4 123.5 243.15 123.6 203.5 119.85 157.4 116.25 155.8 116.25 159.4 119.85 156.7 119.85 159.45 119.9 M293.7 112.8 L251.3 116.1 251.2 116.25 290.7 116.3 290.75 155.8 290.9 155.7 294.2 113.3 294.2 113 297.65 148.35 297.65 148.05 297.55 109.4 258.95 109.35 258.65 109.35 258.35 109.35 258.1 109.35 258 109.4 215.25 112.65 254.8 112.65 251.3 116.1 250.55 116.15 251.2 116.25 287.15 119.85 290.75 155.8 290.85 156.45 290.9 155.7 294.35 152.2 294.2 113.3 M287.15 119.85 L287.15 121.25 287.15 135.55 287.15 144.9 287.15 154.65 287.15 155.85 287.15 156.7 287.15 159.4 290.75 155.8 290.75 157.4 290.85 156.45 294.35 191.75 294.35 152.2 297.6 149 297.65 148.35 297.65 148.65 297.7 148.9 300.8 145.75 M297.65 148.05 L300.8 106.2 258.95 109.35 M258.35 109.35 L258.1 109.3 258.1 109.35 219.75 109.35 M261.25 106.2 L258.1 109.3 225.8 106.2 M209.3 116.25 L249.6 116.25 250.55 116.15 215.25 112.65 M250.3 119.85 L247.6 119.85 247.55 119.9 M244.7 119.85 L247.5 119.9 M243.35 127.1 L245.95 127.05 243.4 127.05 M245.95 127.05 L246.75 127.05 247.85 127.05 279.2 127.05 M276.35 165.7 L276.2 167.4 279.9 165.65 279.9 163.65 279.95 161.05 279.95 160.25 279.95 159.15 279.95 127.8 M272.75 169 L269 170.8 272.75 203.5 272.75 169.9 272.75 169.4 272.75 169 272.75 167.8 272.75 166.65 M272.8 167.8 L272.75 167.8 M269.1 169.95 L269 170.7 M279.95 165.65 L279.95 167.65 279.95 169 279.95 203.5 283.4 163.85 283.3 162.75 279.95 165.65 279.95 163.6 279.9 163.65 M279.95 163.6 L279.95 161.05 M279.95 165.65 L279.9 165.65 279.95 167.65 M276.2 167.4 L276.2 167.45 276.2 167.55 279.95 203.5 283.4 243.15 287.15 203.5 283.4 163.85 283.5 162.6 287.1 159.5 287.1 159.45 287.15 156.7 M262.45 174 L265.65 203.5 265.65 172.4 262.55 172.95 262.45 173.8 262.45 174 262.4 173.85 262.3 173 259.5 173.5 M262.4 173.85 L262.45 173.8 M297.6 149 L297.65 148.9 297.65 148.65 M300.8 181.2 L297.7 148.9 297.65 148.9 297.65 187.25 M287.1 159.5 L287.15 162.3 287.15 159.4 287.1 159.45 M287.15 203.5 L287.15 199.7 287.15 164.5 287.15 163.25 287.15 162.3 M290.75 197.7 L290.75 157.4 287.15 203.5 290.75 249.6 290.75 209.3 M294.35 191.75 L297.6 149 M95.85 20.8 L100.6 25.2 101.35 25.85 109.45 32.75 113.7 36.1 116.85 38.45 120.6 41.1 124.95 44 129.5 46.75 Q132.5 48.5 135.5 50.05 L137.6 51.05 141.55 52.85 148.05 55.4 M139.3 64.3 L92.95 55.15 101.8 64.3 M120.95 46.1 L121.25 46.1 120.9 46.05 74.85 36.95 74.7 37 83.85 46.1 120.95 46.1 M121.05 46.2 L121.25 46.1 M95.6 95.95 L95.95 95.95 95.95 95.6 M95.95 95.95 L133.45 95.95 133.4 95.85 91.35 90.75 90.75 90.75 90.75 91.35 95.85 133.4 95.95 133.45 95.95 95.95 M159.2 58.9 L153.75 57.3 M123.1 85.55 L123.2 85.5 123.1 85.5 123.1 85.55 128.25 90.75 165.75 90.75 123.2 85.5 123.35 85.5 155.3 80.3 M80.25 117.95 L85.5 123.1 85.5 122.85 80.3 80.3 122.85 85.5 123.1 85.5 117.95 80.25 M165.75 90.75 L133.95 95.95 133.55 96 133.45 95.95 133.95 95.95 133.4 95.85 128.25 90.75 91.35 90.75 123.1 85.55 M160.4 85.5 L123.35 85.5 M85.5 122.85 L85.5 85.5 122.85 85.5 M83.85 46.1 L47 46.1 92.95 55.15 83.85 46.1 M121.05 46.2 L92.95 55.15 129.45 54.55 M37.3 36.95 L74.6 36.95 74.6 36.9 28.8 27.9 56.75 19.2 56.7 19.15 20.25 19.15 M47.8 10.3 L56.7 19.15 56.85 19.15 56.9 19.15 85.3 10.3 M56.75 19.2 L65.5 27.9 102.6 27.9 56.85 19.15 56.75 19.2 M65.5 27.9 L74.6 36.9 74.75 36.95 74.85 36.95 74.95 36.95 102.6 27.9 M47 46.1 L74.7 37 74.6 36.95 74.75 36.95 M19.2 56.75 L19.15 56.7 19.15 56.85 19.2 56.75 27.9 28.8 36.9 74.6 36.95 74.6 36.95 37.3 M10.3 85.3 L19.15 56.9 19.15 56.85 27.9 102.6 27.9 65.5 19.2 56.75 M36.95 74.6 L36.95 74.75 36.95 74.85 37 74.7 36.95 74.6 M46.1 121.25 L46.05 120.9 36.95 74.85 36.95 74.95 36.9 111.7 M36.1 113.7 L38.45 116.85 M36.9 74.6 L36.95 74.75 M27.9 28.8 L27.9 65.5 36.9 74.6 M19.15 94.55 L19.15 56.9 M55.15 55.75 L55.15 92.95 64.3 64.3 92.95 55.15 55.75 55.15 M55.15 92.95 L46.1 47 46.1 83.85 55.15 92.95 64.3 101.8 M10.3 47.8 L19.15 56.7 10.3 10.3 56.7 19.15 M28.8 27.9 L65.5 27.9 M19.15 56.7 L19.15 20.25 M46.1 47 L37 74.7 46.1 83.85 46.1 120.95 46.1 121.25 M46.2 121.05 L55.15 92.95 64.3 139.3 M55.4 148.05 L52.85 141.55 51.05 137.6 50.05 135.5 46.75 129.5 44 124.95 41.1 120.6 38.45 116.85 M46.2 121.05 L46.1 121.25 M36.1 113.7 L32.75 109.45 25.85 101.35 25.2 100.6 20.8 95.85 M63.85 190.5 Q63.2 181.3 61.8 172.9 L61.45 170.8 61 168.5 60.15 164.3 58.9 159.2 57.3 153.75 M148.9 109.3 L148.65 109.35 148.9 109.35 148.9 109.3 145.75 106.2 M148.65 109.35 L148.35 109.35 149 109.4 148.9 109.35 187.25 109.35 M148.05 109.35 L109.4 109.45 109.35 148.05 109.35 148.35 112.8 113 112.8 113.3 116.1 155.7 116.25 155.8 116.3 116.3 155.8 116.25 155.7 116.1 113.3 112.8 113 112.8 148.35 109.35 148.05 109.35 106.2 106.2 109.35 148.05 M157.4 116.25 L156.45 116.15 155.8 116.25 119.85 119.85 121.25 119.85 135.55 119.85 144.9 119.85 154.65 119.85 155.85 119.85 156.7 119.85 M155.7 116.1 L156.45 116.15 191.75 112.65 152.2 112.65 155.7 116.1 M191.75 112.65 L149 109.4 152.2 112.65 113.3 112.8 M119.85 121.25 L119.85 135.55 119.85 144.9 119.85 154.65 119.85 155.85 119.85 156.7 119.9 159.45 119.9 159.5 123.5 162.6 119.85 119.85 119.85 121.25 M95.95 133.45 L96 133.55 95.95 133.95 90.75 165.75 85.5 123.2 85.5 123.35 85.5 160.4 M85.5 123.1 L85.55 123.1 90.75 91.35 90.75 128.25 95.85 133.4 95.95 133.95 95.95 133.45 M85.5 123.1 L85.5 123.2 85.55 123.1 90.75 128.25 90.75 165.75 M116.25 197.7 L116.25 157.4 116.15 156.45 112.65 191.75 109.4 149 109.35 148.9 109.35 187.25 M116.25 157.4 L119.85 203.5 119.85 199.7 119.85 164.5 119.85 163.25 119.85 162.3 119.85 159.4 116.25 155.8 116.25 157.4 M116.1 155.7 L116.15 156.45 116.25 155.8 119.85 119.85 162.6 123.5 M119.85 156.7 L119.85 159.4 119.9 159.45 M112.8 113.3 L112.65 152.2 116.1 155.7 M109.35 148.65 L109.3 148.9 109.35 148.9 109.35 148.65 109.35 148.35 109.4 149 112.65 152.2 112.65 191.75 M119.85 162.3 L119.9 159.5 M109.3 148.9 L106.2 181.2 M141.35 141.35 L144.45 172.95 144.7 173 144.6 173.85 144.55 174 147.5 203.5 144.55 233 144.6 233.15 144.7 234 147.5 233.5 M127.05 159.15 L127.05 127.8 123.7 162.75 127.05 165.65 127.05 163.6 127.05 161.05 127.05 160.25 127.05 159.15 M127.05 165.65 L127.1 165.65 127.1 163.65 127.05 163.6 M127.05 127.8 L130.65 165.7 131 165.9 134.3 134.3 165.9 131 M127.1 163.65 L127.05 161.05 M123.6 163.85 L123.7 162.75 123.5 162.6 123.6 163.85 127.05 203.5 127.05 169 127.05 167.65 127.05 165.65 M130.8 167.55 L134.25 203.5 134.25 169.9 134.25 169.4 134.25 169 130.8 167.45 130.8 167.55 127.05 203.5 130.8 239.45 134.25 203.5 138 170.8 134.25 169 134.2 167.8 134.25 166.65 134.25 166.25 134.25 165.7 134.3 134.3 137.9 169.95 138.05 170.05 141.35 141.35 170.05 138.05 M130.65 165.7 L130.8 167.4 130.8 167.45 131 165.9 M130.8 167.4 L127.1 165.65 127.05 167.65 M134.25 169 L134.25 167.8 134.2 167.8 M138.05 170.05 L138 170.7 138 170.8 141.35 172.4 141.35 141.35 M137.9 169.95 L138 170.7 M134.25 167.8 L134.25 166.65 M144.6 173.85 L144.55 173.8 144.55 174 141.35 203.5 144.55 233 144.55 233.2 144.6 233.15 M144.55 173.8 L144.45 172.95 141.35 172.4 141.35 203.5 138 170.8 M106.2 145.75 L109.3 148.9 M94.55 19.15 L56.9 19.15 M74.95 36.95 L111.7 36.9 M85.5 123.35 L80.3 155.3 M27.9 102.6 L36.95 74.95 M54.55 129.45 L55.15 92.95 M130.8 239.55 L130.8 239.6 130.65 241.3 131 241.1 130.8 239.55 130.8 239.45 M127.05 203.5 L127.05 238 127.05 239.35 127.1 241.35 130.8 239.6 M123.6 243.15 L123.5 244.4 123.7 244.25 123.6 243.15 119.85 203.5 119.85 207.3 119.85 242.5 119.85 243.75 119.85 244.7 119.9 247.5 123.5 244.4 119.85 287.15 162.6 283.5 162.75 283.3 127.8 279.95 165.7 276.35 165.9 276 134.3 272.7 131 241.1 M127.05 241.35 L123.7 244.25 127.05 279.2 127.05 247.85 127.05 246.75 127.05 245.95 127.05 243.4 127.05 241.35 127.05 239.35 M127.05 241.35 L127.1 241.35 127.1 243.35 127.05 245.95 M127.1 243.35 L127.05 243.4 M138 236.3 L137.9 237.05 138.05 236.95 138 236.3 138 236.2 134.25 238 134.25 239.2 134.25 240.35 134.25 240.75 134.25 241.3 134.3 272.7 137.9 237.05 M138 236.2 L134.25 203.5 134.25 237.1 134.25 237.6 134.25 238 134.2 239.2 134.25 239.2 M134.25 240.35 L134.2 239.2 M134.25 238 L130.8 239.55 M141.35 234.6 L141.35 203.5 138 236.2 141.35 234.6 144.45 234.05 144.55 233.2 M144.45 234.05 L144.7 234 147.5 259.5 173 262.3 173.5 259.5 M123.6 243.15 L127.05 203.5 M119.85 244.7 L119.85 247.6 119.9 247.55 119.9 247.5 M119.9 247.55 L119.85 250.3 119.85 251.15 119.85 252.35 119.85 262.1 119.85 271.45 119.85 285.75 119.85 287.15 116.25 251.2 116.3 290.7 155.8 290.75 119.85 287.15 121.25 287.15 135.55 287.15 144.9 287.15 154.65 287.15 155.85 287.15 156.7 287.15 159.45 287.1 159.5 287.1 162.6 283.5 163.85 283.4 162.75 283.3 165.65 279.95 163.6 279.95 161.05 279.95 160.25 279.95 159.15 279.95 127.8 279.95 M119.85 250.3 L119.85 247.6 116.25 251.2 116.15 250.55 116.1 251.3 116.25 251.2 116.25 249.6 116.15 250.55 112.65 215.25 112.65 254.8 116.1 251.3 112.8 293.7 112.8 294 109.35 258.65 109.35 258.95 109.45 297.6 148.05 297.65 148.35 297.65 113 294.2 113.3 294.2 155.7 290.9 155.8 290.75 159.4 287.15 156.7 287.15 M106.2 225.8 L109.3 258.1 109.35 258.1 109.35 219.75 M109.35 258.65 L109.35 258.35 109.3 258.1 106.2 261.25 M109.35 258.65 L109.4 258 109.35 258.1 109.35 258.35 M112.65 215.25 L109.4 258 112.65 254.8 112.8 293.7 M95.95 273.55 L96 273.45 95.95 273.05 95.95 273.55 95.95 311.05 133.45 311.05 133.55 311 133.95 311.05 165.75 316.25 123.2 321.5 123.35 321.5 160.4 321.5 M95.95 273.05 L90.75 241.25 90.75 278.75 95.85 273.6 95.95 273.05 M95.95 273.55 L95.85 273.6 90.75 315.65 90.75 316.25 91.35 316.25 133.4 311.15 133.45 311.05 133.95 311.05 133.4 311.15 128.25 316.25 165.75 316.25 M90.75 241.25 L85.5 283.8 85.55 283.9 90.75 278.75 90.75 315.65 85.55 283.9 85.5 283.9 85.5 284.15 85.5 321.5 122.85 321.5 123.1 321.5 123.1 321.45 91.35 316.25 128.25 316.25 123.1 321.45 123.2 321.5 123.1 321.5 117.95 326.75 M80.25 289.05 L85.5 283.9 85.5 283.8 85.5 283.65 80.3 251.7 M159.4 287.15 L159.45 287.1 M155.7 290.9 L156.45 290.85 155.8 290.75 157.4 290.75 203.5 287.15 199.7 287.15 164.5 287.15 163.25 287.15 162.3 287.15 159.4 287.15 M113.3 294.2 L152.2 294.35 155.7 290.9 M197.7 290.75 L157.4 290.75 156.45 290.85 191.75 294.35 149 297.6 148.9 297.65 187.25 297.65 M85.5 283.65 L85.5 246.6 M138.05 236.95 L141.35 265.65 141.35 234.6 M141.35 265.65 L144.45 234.05 M116.25 209.3 L116.25 249.6 119.85 203.5 123.6 163.85 M127.05 279.2 L130.65 241.3 M57.3 253.25 L58.9 247.8 60.15 242.7 61 238.5 61.45 236.2 61.8 234.1 Q63.2 225.7 63.85 216.5 M36.9 295.3 L36.95 332.05 36.95 332.15 46.05 286.1 46.1 285.75 46.2 285.95 55.15 314.05 64.3 305.2 M44 282.05 L41.1 286.4 38.45 290.15 36.1 293.3 32.75 297.55 25.85 305.65 25.2 306.4 20.8 311.15 M55.4 258.95 L52.85 265.45 51.05 269.4 50.05 271.5 46.75 277.5 44 282.05 M54.55 277.55 L55.15 314.05 64.3 267.7 M46.1 286.05 L46.1 285.75 M55.75 351.85 L92.95 351.85 64.3 342.7 55.15 314.05 55.15 351.25 M46.1 323.15 L46.1 360 55.15 314.05 46.1 323.15 46.1 286.05 M36.9 332.4 L36.95 332.4 36.95 332.25 36.9 332.4 27.9 378.2 19.2 350.25 19.15 350.3 19.15 386.75 M36.95 332.25 L36.95 332.15 37 332.3 46.1 323.15 M46.1 360 L37 332.3 36.95 332.4 36.95 369.7 M36.95 332.05 L27.9 304.4 27.9 341.5 36.9 332.4 M47.8 396.7 L56.7 387.85 10.3 396.7 19.15 350.3 10.3 359.2 M19.2 350.25 L19.15 350.15 19.15 350.3 M19.15 312.45 L19.15 350.1 19.15 350.15 27.9 304.4 M121.25 360.9 L120.9 360.95 74.85 370.05 74.95 370.05 111.7 370.1 M113.7 370.9 L116.85 368.55 M74.7 370 L74.6 370.05 74.75 370.05 74.85 370.05 74.7 370 47 360.9 92.95 351.85 101.8 342.7 M74.6 370.05 L74.6 370.1 74.75 370.05 M56.75 387.8 L56.7 387.85 56.85 387.85 56.75 387.8 28.8 379.1 74.6 370.1 65.5 379.1 102.6 379.1 74.95 370.05 M85.3 396.7 L56.9 387.85 56.85 387.85 102.6 379.1 M65.5 379.1 L56.75 387.8 M10.3 321.7 L19.15 350.1 M27.9 378.2 L27.9 341.5 19.2 350.25 M37.3 370.05 L74.6 370.05 M56.7 387.85 L20.25 387.85 M28.8 379.1 L65.5 379.1 M148.35 297.65 L149 297.6 152.2 294.35 191.75 294.35 M145.75 300.8 L148.9 297.7 148.65 297.65 148.35 297.65 M148.9 297.7 L148.9 297.65 148.65 297.65 M123.35 321.5 L155.3 326.7 M95.95 311.4 L95.95 311.05 95.6 311.05 M121.25 360.9 L120.95 360.9 M121.05 360.8 L92.95 351.85 83.85 360.9 120.95 360.9 M121.05 360.8 L121.25 360.9 M124.95 363 Q127.25 361.55 129.5 360.25 M124.95 363 L120.6 365.9 116.85 368.55 M113.7 370.9 L109.45 374.25 101.35 381.15 100.6 381.8 95.85 386.2 M190.5 343.15 Q181.3 343.8 172.9 345.2 L170.8 345.55 168.5 346 164.3 346.85 159.2 348.1 Q156.4 348.85 153.75 349.7 M148.05 351.6 Q144.7 352.8 141.55 354.15 139.55 355 137.6 355.95 L135.5 356.95 Q132.5 358.5 129.5 360.25 M139.3 342.7 L92.95 351.85 129.45 352.45 M148.05 297.65 L106.2 300.8 109.35 258.95 M122.85 321.5 L80.3 326.7 85.5 284.15 M94.55 387.85 L56.9 387.85 M74.7 370 L83.85 360.9 47 360.9 M287.15 203.5 L287.15 207.3 287.15 242.5 287.15 243.75 287.15 244.7 287.15 247.6 290.75 251.2 290.75 249.6 290.85 250.55 294.35 215.25 297.6 258 297.65 258.1 297.65 219.75 M262.3 234 L262.55 234.05 262.45 233.2 262.4 233.15 262.3 234 259.5 233.5 M262.45 233.2 L262.45 233 262.4 233.15 M272.75 237.6 L272.75 238 276.2 239.55 276.2 239.45 272.75 203.5 272.75 237.1 272.75 237.6 M268.95 236.95 L265.65 265.65 236.95 268.95 237.05 269.1 272.7 272.7 269.1 237.05 268.95 236.95 269 236.3 269 236.2 265.65 234.6 265.65 265.65 234.05 262.55 234.6 265.65 265.65 265.65 262.55 234.05 265.65 234.6 265.65 203.5 262.45 233 259.5 203.5 262.45 174 M269.1 237.05 L269 236.3 M272.75 240.35 L272.8 239.2 272.75 239.2 272.75 240.35 272.75 240.75 272.75 241.3 272.7 272.7 276 241.1 276.2 239.55 276.2 239.6 279.9 241.35 279.95 239.35 279.95 238 279.95 203.5 276.2 239.45 M272.8 239.2 L272.75 238 272.75 239.2 M272.75 203.5 L269 236.2 272.75 238 M272.7 272.7 L241.1 276 241.3 276.35 279.2 279.95 244.25 283.3 244.4 283.5 287.15 287.15 283.5 244.4 283.3 244.25 279.95 279.2 276.35 241.3 276 241.1 M276.35 241.3 L276.2 239.6 M279.95 239.35 L279.95 241.35 283.3 244.25 283.4 243.15 283.5 244.4 287.1 247.5 287.15 244.7 M279.95 243.4 L279.95 241.35 279.9 241.35 279.9 243.35 279.95 243.4 279.95 245.95 279.95 246.75 279.95 247.85 279.95 279.2 M279.9 243.35 L279.95 245.95 M269 170.8 L265.65 203.5 269 236.2 M241.3 276.35 L239.6 276.2 241.35 279.9 243.35 279.9 245.95 279.95 246.75 279.95 247.85 279.95 279.2 279.95 M244.25 283.3 L243.15 283.4 244.4 283.5 247.5 287.1 247.55 287.1 250.3 287.15 251.15 287.15 252.35 287.15 262.1 287.15 271.45 287.15 285.75 287.15 287.15 287.15 287.15 285.75 287.15 271.45 287.15 262.1 287.15 252.35 287.15 251.15 287.15 250.3 287.1 247.55 287.1 247.5 M243.35 279.9 L243.4 279.95 245.95 279.95 M249.6 290.75 L250.55 290.85 251.2 290.75 249.6 290.75 203.5 287.15 163.85 283.4 203.5 279.95 169 279.95 167.65 279.95 165.65 279.95 165.65 279.9 163.65 279.9 163.6 279.95 M243.15 283.4 L203.5 287.15 207.3 287.15 242.5 287.15 243.75 287.15 244.7 287.15 247.5 287.1 M244.7 287.15 L247.6 287.15 247.55 287.1 M250.55 290.85 L215.25 294.35 254.8 294.35 251.3 290.9 250.55 290.85 M251.3 290.9 L293.7 294.2 294 294.2 258.65 297.65 258.95 297.65 297.6 297.55 297.65 258.95 297.65 258.65 294.2 294 294.2 293.7 290.9 251.3 290.75 251.2 290.7 290.7 251.2 290.75 251.3 290.9 M250.3 287.15 L247.6 287.15 251.2 290.75 287.15 287.15 290.75 251.2 290.85 250.55 290.9 251.3 294.35 254.8 294.35 215.25 M300.8 261.25 L297.7 258.1 297.65 258.35 297.65 258.65 297.6 258 294.35 254.8 294.2 293.7 M297.7 258.1 L297.65 258.1 297.65 258.35 M287.15 250.3 L287.15 247.6 287.1 247.55 M246.6 321.5 L283.65 321.5 283.8 321.5 241.25 316.25 273.05 311.05 273.45 311 273.55 311.05 311.05 311.05 311.05 273.55 311 273.45 311.05 273.05 316.25 241.25 321.5 283.8 321.5 283.65 321.5 246.6 M321.5 283.9 L321.45 283.9 316.25 315.65 316.25 316.25 315.65 316.25 283.9 321.45 283.9 321.5 284.15 321.5 321.5 321.5 321.5 284.15 321.5 283.9 321.5 283.8 321.45 283.9 316.25 278.75 316.25 315.65 311.15 273.6 311.05 273.55 311.05 273.05 311.15 273.6 316.25 278.75 316.25 241.25 M254.8 294.35 L293.7 294.2 M297.7 258.1 L300.8 225.8 M262.3 234 L259.5 259.5 234 262.3 234.05 262.55 233.2 262.45 233 262.45 203.5 265.65 234.6 265.65 236.2 269 236.3 269 236.95 268.95 M170.7 269 L170.8 269 172.4 265.65 141.35 265.65 170.05 268.95 170.7 269 169.95 269.1 134.3 272.7 165.7 272.75 166.25 272.75 166.65 272.75 167.8 272.75 169 272.75 170.8 269 203.5 265.65 172.4 265.65 172.95 262.55 141.35 265.65 M169.95 269.1 L170.05 268.95 M173.85 262.4 L173.8 262.45 174 262.45 173.85 262.4 173 262.3 172.95 262.55 173.8 262.45 M203.5 279.95 L167.55 276.2 167.45 276.2 167.4 276.2 165.65 279.9 167.65 279.95 M167.8 272.75 L167.8 272.8 169 272.75 169.4 272.75 169.9 272.75 203.5 272.75 170.8 269 M169 272.75 L167.45 276.2 M165.7 276.35 L167.4 276.2 165.9 276 M167.8 272.8 L166.65 272.75 M233.2 262.45 L233.15 262.4 233 262.45 203.5 259.5 174 262.45 203.5 265.65 236.2 269 238 272.75 239.2 272.75 240.35 272.75 240.75 272.75 241.3 272.75 272.7 272.7 M233.15 262.4 L234 262.3 233.5 259.5 M237.05 269.1 L236.3 269 M239.2 272.75 L239.2 272.8 240.35 272.75 M239.2 272.8 L238 272.75 239.55 276.2 239.6 276.2 241.1 276 M239.55 276.2 L239.45 276.2 203.5 279.95 238 279.95 239.35 279.95 241.35 279.9 241.35 279.95 243.4 279.95 M236.2 269 L203.5 272.75 237.1 272.75 237.6 272.75 238 272.75 M244.25 283.3 L241.35 279.95 239.35 279.95 M239.45 276.2 L203.5 272.75 167.55 276.2 M234.1 345.2 L236.2 345.55 238.5 346 242.7 346.85 M216.5 343.15 Q225.7 343.8 234.1 345.2 M311.4 311.05 L311.05 311.05 311.05 311.4 M283.8 321.5 L283.9 321.45 278.75 316.25 241.25 316.25 M289.05 326.75 L283.9 321.5 283.8 321.5 M273.55 311.05 L273.6 311.15 315.65 316.25 278.75 316.25 273.6 311.15 273.05 311.05 273.55 311.05 M258.35 297.65 L258.65 297.65 258 297.6 258.1 297.65 258.35 297.65 258.1 297.7 261.25 300.8 M225.8 300.8 L258.1 297.7 258.1 297.65 219.75 297.65 M271.5 356.95 L277.5 360.25 M265.45 354.15 L269.4 355.95 271.5 356.95 M282.05 363 L277.5 360.25 M247.8 348.1 L253.25 349.7 M258.95 351.6 L265.45 354.15 M314.05 351.85 L323.15 360.9 360 360.9 M285.95 360.8 L285.75 360.9 M285.95 360.8 L314.05 351.85 277.55 352.45 M311.15 386.2 L306.4 381.8 305.65 381.15 297.55 374.25 293.3 370.9 290.15 368.55 286.4 365.9 M247.8 348.1 L242.7 346.85 M267.7 342.7 L314.05 351.85 M258.95 297.65 L300.8 300.8 297.65 258.95 M283.65 321.5 L251.7 326.7 M215.25 294.35 L258 297.6 254.8 294.35 M209.3 290.75 L249.6 290.75 M203.5 279.95 L243.15 283.4 M197.7 116.25 L157.4 116.25 M159.2 58.9 L164.3 60.15 M148.9 109.3 L181.2 106.2 M276.2 167.55 L272.75 203.5 M162.3 287.15 L159.5 287.1 M148.9 297.7 L181.2 300.8 M163.65 279.9 L161.05 279.95 M332.05 370.05 L295.3 370.1 M350.3 387.85 L359.2 396.7 M321.7 396.7 L350.1 387.85 M321.5 284.15 L326.7 326.7 284.15 321.5 M321.5 123.35 L326.7 155.3 M312.45 19.15 L350.1 19.15 M304.4 27.9 L332.05 36.95 M332.3 37 L323.15 46.1 360 46.1 M321.5 283.9 L326.75 289.05 M321.5 283.65 L326.7 251.7"
       id="path24"
       stroke-linejoin="round"
       stroke-linecap="round"
       stroke-width="1"
       stroke="#ffffff"
       fill="none" />
    <path
       d="M295.3 36.9 L293.3 36.1 M290.15 38.45 L292.6 39.6 M360.8 121.05 L360.9 120.95 360.95 120.9 M351.6 148.05 L342.7 139.3 M352.45 129.45 L356.95 135.5 M370.1 111.7 L370.9 113.7 M368.55 116.85 L367.4 114.4 M360.9 121.25 L363 124.95 M354.15 141.55 L348.1 134.25 M360.25 129.5 L357.2 124.7 M346 168.5 L342.9 166.8 M346.85 164.3 L342.85 161.75 M349.7 153.75 L343.25 148.25 M348.1 159.2 L342.8 155.3 M345.2 172.9 L342.95 171.8 M365.9 120.6 L364.35 117.5 M345.2 234.1 L342.95 235.2 M349.7 253.25 L343.25 258.75 M346 238.5 L342.9 240.2 M342.85 245.25 L346.85 242.7 M370.1 295.3 L370.9 293.3 M360.9 286.05 L360.8 285.95 M360.9 285.75 L363 282.05 M360.25 277.5 L357.2 282.3 M360.95 286.1 L360.9 286.05 M354.15 265.45 L348.1 272.75 M352.45 277.55 L356.95 271.5 M342.8 251.7 L348.1 247.8 M342.7 267.7 L351.6 258.95 M368.55 290.15 L367.4 292.6 M365.9 286.4 L364.35 289.5 M285.75 360.9 L282.05 363 M286.4 365.9 L289.5 364.35 M286.05 360.9 L286.1 360.95 M286.4 41.1 L289.5 42.65 M286.05 46.1 L286.1 46.05 M285.75 46.1 L282.05 44 M277.5 46.75 L282.3 49.8 M286.05 46.1 L285.95 46.2 M265.45 52.85 L272.75 58.9 M277.55 54.55 L271.5 50.05 M258.95 55.4 L267.7 64.3 M253.25 57.3 L258.75 63.75 M251.7 64.2 L247.8 58.9 M242.7 60.15 L245.25 64.15 M164.3 60.15 L161.75 64.15 M168.5 61 L166.8 64.1 M172.9 61.8 L171.8 64.05 M234.1 61.8 L235.2 64.05 M238.5 61 L240.2 64.1 M148.05 55.4 L139.3 64.3 M111.7 36.9 L113.7 36.1 M120.6 41.1 L117.5 42.65 M120.9 46.05 L120.95 46.1 121.05 46.2 M121.25 46.1 L124.95 44 M116.85 38.45 L114.4 39.6 M153.75 57.3 L148.25 63.75 M155.3 64.2 L159.2 58.9 M129.45 54.55 L135.5 50.05 M141.55 52.85 L134.25 58.9 M129.5 46.75 L124.7 49.8 M36.9 111.7 L36.1 113.7 M38.45 116.85 L39.6 114.4 M46.1 120.95 L46.2 121.05 M64.3 139.3 L55.4 148.05 M41.1 120.6 L42.65 117.5 M46.1 121.25 L44 124.95 M46.05 120.9 L46.1 120.95 M54.55 129.45 L50.05 135.5 M52.85 141.55 L58.9 134.25 M46.75 129.5 L49.8 124.7 M57.3 153.75 L63.75 148.25 M61.8 172.9 L64.05 171.8 M61 168.5 L64.1 166.8 M64.15 161.75 L60.15 164.3 M64.2 155.3 L58.9 159.2 M61.8 234.1 L64.05 235.2 M61 238.5 L64.1 240.2 M64.15 245.25 L60.15 242.7 M38.45 290.15 L39.6 292.6 M36.1 293.3 L36.9 295.3 M46.1 285.75 L44 282.05 M41.1 286.4 L42.65 289.5 M52.85 265.45 L58.9 272.75 M50.05 271.5 L54.55 277.55 M64.3 267.7 L55.4 258.95 M46.75 277.5 L49.8 282.3 M46.05 286.1 L46.1 286.05 46.2 285.95 M57.3 253.25 L63.75 258.75 M58.9 247.8 L64.2 251.7 M111.7 370.1 L113.7 370.9 M116.85 368.55 L114.4 367.4 M120.95 360.9 L120.9 360.95 M120.95 360.9 L121.05 360.8 M121.25 360.9 L124.95 363 M129.5 360.25 L124.7 357.2 M120.6 365.9 L117.5 364.35 M153.75 349.7 L148.25 343.25 M129.45 352.45 L135.5 356.95 M141.55 354.15 L134.25 348.1 M139.3 342.7 L148.05 351.6 M155.3 342.8 L159.2 348.1 M238.5 346 L240.2 342.9 M242.7 346.85 L245.25 342.85 M234.1 345.2 L235.2 342.95 M172.9 345.2 L171.8 342.95 M168.5 346 L166.8 342.9 M265.45 354.15 L272.75 348.1 M277.55 352.45 L271.5 356.95 M277.5 360.25 L282.3 357.2 M253.25 349.7 L258.75 343.25 M286.05 360.9 L285.95 360.8 M290.15 368.55 L292.6 367.4 M295.3 370.1 L293.3 370.9 M267.7 342.7 L258.95 351.6 M251.7 342.8 L247.8 348.1 M161.75 342.85 L164.3 346.85"
       id="path26"
       stroke-linejoin="round"
       stroke-linecap="round"
       stroke-width="1"
       stroke="#ffffff"
       fill="none" />
  </g>
</svg>
